<svg width="16" height="16" viewBox="0 0 16 16" fill="none" xmlns="http://www.w3.org/2000/svg">
<path d="M1.429 9.601C1.033 9.601 0.691 9.466 0.403 9.196C0.133 8.908 -0.00199997 8.566 -0.00199997 8.17C-0.00199997 7.774 0.133 7.441 0.403 7.171C0.691 6.883 1.033 6.739 1.429 6.739H6.154C6.298 6.739 6.37 6.658 6.37 6.496V1.879C6.37 1.465 6.523 1.105 6.829 0.798999C7.135 0.492999 7.495 0.339999 7.909 0.339999C8.323 0.339999 8.683 0.492999 8.989 0.798999C9.295 1.105 9.448 1.465 9.448 1.879V6.496C9.448 6.658 9.52 6.739 9.664 6.739H14.389C14.785 6.739 15.118 6.883 15.388 7.171C15.676 7.441 15.82 7.774 15.82 8.17C15.82 8.566 15.676 8.908 15.388 9.196C15.118 9.466 14.785 9.601 14.389 9.601H9.664C9.52 9.601 9.448 9.682 9.448 9.844V14.461C9.448 14.875 9.295 15.235 8.989 15.541C8.683 15.847 8.323 16 7.909 16C7.495 16 7.135 15.847 6.829 15.541C6.523 15.235 6.37 14.875 6.37 14.461V9.844C6.37 9.682 6.298 9.601 6.154 9.601H1.429Z" fill="#334155"/>
</svg>
