<svg width="14" height="14" viewBox="0 0 14 14" fill="none" xmlns="http://www.w3.org/2000/svg">
<g clip-path="url(#clip0_98_1308)">
<path d="M12.9647 1.03454C12.8334 0.903311 12.6554 0.82959 12.4698 0.82959C12.2842 0.82959 12.1062 0.903311 11.9749 1.03454L1.036 11.9748C0.969143 12.0394 0.915815 12.1167 0.879129 12.2021C0.842443 12.2875 0.823132 12.3793 0.822325 12.4723C0.821517 12.5652 0.839228 12.6574 0.874425 12.7434C0.909621 12.8294 0.961599 12.9076 1.02732 12.9733C1.09305 13.039 1.1712 13.091 1.25723 13.1262C1.34326 13.1614 1.43544 13.1791 1.52838 13.1783C1.62133 13.1775 1.71318 13.1582 1.79858 13.1215C1.88399 13.0848 1.96123 13.0315 2.0258 12.9646L12.964 2.02434C13.0952 1.89307 13.169 1.71506 13.169 1.52944C13.169 1.34383 13.0959 1.16581 12.9647 1.03454ZM2.1756 9.44854L3.9676 7.65654C3.9165 7.44137 3.88997 7.22109 3.8885 6.99994C3.8885 5.33464 5.2815 3.98364 7 3.98364C7.2002 3.98364 7.3948 4.00604 7.5845 4.04104L8.4266 3.19964C7.95506 3.12152 7.47797 3.08172 7 3.08064C2.408 3.07994 0 6.46164 0 6.99994C0 7.29604 0.7399 8.46364 2.1756 9.44854ZM11.8265 4.55344L10.0331 6.34544C10.0814 6.55684 10.1108 6.77454 10.1108 6.99994C10.1108 8.66524 8.7185 10.0148 7 10.0148C6.8012 10.0148 6.608 9.99244 6.4197 9.95814L5.5769 10.8002C6.0263 10.873 6.4981 10.9192 7 10.9192C11.592 10.9192 14 7.53614 14 6.99994C14 6.70314 13.2608 5.53694 11.8265 4.55344Z" fill="#334155"/>
</g>
<defs>
<clipPath id="clip0_98_1308">
<rect width="14" height="14" fill="white"/>
</clipPath>
</defs>
</svg>
