<svg width="14" height="14" viewBox="0 0 14 14" fill="none" xmlns="http://www.w3.org/2000/svg">
<g clip-path="url(#clip0_98_1306)">
<path d="M1.55555 12.4444H2.66389L10.2667 4.84167L9.15833 3.73333L1.55555 11.3361V12.4444ZM0 14V10.6944L10.2667 0.447222C10.4222 0.30463 10.5941 0.194445 10.7823 0.116667C10.9706 0.038889 11.1681 0 11.375 0C11.5824 0 11.7833 0.038889 11.9778 0.116667C12.1722 0.194445 12.3407 0.311111 12.4833 0.466667L13.5528 1.55556C13.7083 1.69815 13.8219 1.86667 13.8934 2.06111C13.965 2.25556 14.0005 2.45 14 2.64444C14 2.85185 13.9645 3.04967 13.8934 3.23789C13.8224 3.42611 13.7088 3.59774 13.5528 3.75278L3.30555 14H0ZM9.70277 4.29722L9.15833 3.73333L10.2667 4.84167L9.70277 4.29722Z" fill="#334155"/>
</g>
<defs>
<clipPath id="clip0_98_1306">
<rect width="14" height="14" fill="white"/>
</clipPath>
</defs>
</svg>
