<svg width="14" height="14" viewBox="0 0 14 14" fill="none" xmlns="http://www.w3.org/2000/svg">
<path d="M7.00001 5.25C6.53588 5.25 6.09076 5.43437 5.76257 5.76256C5.43438 6.09075 5.25001 6.53587 5.25001 7C5.25001 7.46413 5.43438 7.90925 5.76257 8.23744C6.09076 8.56563 6.53588 8.75 7.00001 8.75C7.46414 8.75 7.90926 8.56563 8.23745 8.23744C8.56564 7.90925 8.75001 7.46413 8.75001 7C8.75001 6.53587 8.56564 6.09075 8.23745 5.76256C7.90926 5.43437 7.46414 5.25 7.00001 5.25ZM7.00001 9.91667C6.22646 9.91667 5.4846 9.60938 4.93762 9.06239C4.39063 8.51541 4.08334 7.77355 4.08334 7C4.08334 6.22645 4.39063 5.48459 4.93762 4.93761C5.4846 4.39062 6.22646 4.08333 7.00001 4.08333C7.77356 4.08333 8.51542 4.39062 9.0624 4.93761C9.60939 5.48459 9.91668 6.22645 9.91668 7C9.91668 7.77355 9.60939 8.51541 9.0624 9.06239C8.51542 9.60938 7.77356 9.91667 7.00001 9.91667ZM7.00001 2.625C4.08334 2.625 1.59251 4.43917 0.583344 7C1.59251 9.56083 4.08334 11.375 7.00001 11.375C9.91668 11.375 12.4075 9.56083 13.4167 7C12.4075 4.43917 9.91668 2.625 7.00001 2.625Z" fill="#334155"/>
</svg>
