<svg width="20" height="20" viewBox="0 0 20 20" fill="none" xmlns="http://www.w3.org/2000/svg">
<path d="M10.0001 13.8462C11.6995 13.8462 13.0771 12.4686 13.0771 10.7693C13.0771 9.06997 11.6995 7.69238 10.0001 7.69238C8.3008 7.69238 6.92322 9.06997 6.92322 10.7693C6.92322 12.4686 8.3008 13.8462 10.0001 13.8462Z" stroke="#334155" stroke-width="1.5" stroke-linecap="round" stroke-linejoin="round"/>
<path d="M15.3845 9.23084C16.1311 9.22984 16.8677 9.36842 17.5354 9.63553C18.2032 9.90264 18.7837 10.2909 19.2307 10.7693" stroke="#334155" stroke-width="1.5" stroke-linecap="round" stroke-linejoin="round"/>
<path d="M0.769287 10.7693C1.21624 10.2909 1.79675 9.90264 2.46453 9.63553C3.1323 9.36842 3.86885 9.22984 4.61544 9.23084" stroke="#334155" stroke-width="1.5" stroke-linecap="round" stroke-linejoin="round"/>
<path d="M5.38452 16.9231C5.80666 16.0003 6.46311 15.2226 7.27911 14.6786C8.09511 14.1346 9.03784 13.8462 9.99991 13.8462C10.962 13.8462 11.9047 14.1346 12.7207 14.6786C13.5367 15.2226 14.1932 16.0003 14.6153 16.9231" stroke="#334155" stroke-width="1.5" stroke-linecap="round" stroke-linejoin="round"/>
<path d="M4.63844 9.23081C4.19652 9.23132 3.76361 9.08641 3.39027 8.81299C3.01693 8.53957 2.7186 8.14895 2.53012 7.68676C2.34164 7.22456 2.27081 6.70989 2.3259 6.20288C2.38099 5.69587 2.55973 5.21745 2.84122 4.82354C3.12272 4.42962 3.49535 4.13647 3.91557 3.97834C4.3358 3.82021 4.78626 3.80364 5.21434 3.93054C5.64241 4.05745 6.03041 4.32261 6.33299 4.69503C6.63558 5.06745 6.84026 5.53175 6.92312 6.03369" stroke="#334155" stroke-width="1.5" stroke-linecap="round" stroke-linejoin="round"/>
<path d="M13.0768 6.03369C13.1596 5.53175 13.3643 5.06745 13.6669 4.69503C13.9695 4.32261 14.3575 4.05745 14.7856 3.93054C15.2136 3.80364 15.6641 3.82021 16.0843 3.97834C16.5046 4.13647 16.8772 4.42962 17.1587 4.82354C17.4402 5.21745 17.6189 5.69587 17.674 6.20288C17.7291 6.70989 17.6583 7.22456 17.4698 7.68676C17.2813 8.14895 16.983 8.53957 16.6096 8.81299C16.2363 9.08641 15.8034 9.23132 15.3615 9.23081" stroke="#334155" stroke-width="1.5" stroke-linecap="round" stroke-linejoin="round"/>
</svg>
