<svg width="177" height="47" viewBox="0 0 177 47" fill="none" xmlns="http://www.w3.org/2000/svg">
<path d="M16.3665 46.9545C13.4261 46.9545 10.9048 46.5497 8.80256 45.7401C6.71449 44.9446 5.05256 43.858 3.81676 42.4801C2.58097 41.1023 1.77841 39.554 1.40909 37.8352L9.80398 36.706C10.0597 37.3594 10.4645 37.9702 11.0185 38.5384C11.5724 39.1065 12.304 39.5611 13.2131 39.902C14.1364 40.2571 15.2585 40.4347 16.5795 40.4347C18.554 40.4347 20.1804 39.9517 21.4588 38.9858C22.7514 38.0341 23.3977 36.4361 23.3977 34.1918V28.2045H23.0142C22.6165 29.1136 22.0199 29.973 21.2244 30.7827C20.429 31.5923 19.4062 32.2528 18.1562 32.7642C16.9062 33.2756 15.4148 33.5312 13.6818 33.5312C11.2244 33.5312 8.98722 32.9631 6.97017 31.8267C4.96733 30.6761 3.36932 28.9219 2.17614 26.5639C0.997159 24.1918 0.407671 21.1946 0.407671 17.5724C0.407671 13.8651 1.01136 10.7685 2.21875 8.28267C3.42614 5.79687 5.03125 3.93608 7.03409 2.70028C9.05114 1.46449 11.2599 0.846591 13.6605 0.846591C15.4929 0.846591 17.027 1.15909 18.2628 1.78409C19.4986 2.39489 20.4929 3.16193 21.2457 4.08523C22.0128 4.99432 22.6023 5.8892 23.0142 6.76989H23.3551V1.27273H32.3679V34.3196C32.3679 37.1037 31.6861 39.4332 30.3224 41.3082C28.9588 43.1832 27.0696 44.5895 24.6548 45.527C22.2543 46.4787 19.4915 46.9545 16.3665 46.9545ZM16.5582 26.7131C18.0213 26.7131 19.2571 26.3509 20.2656 25.6264C21.2884 24.8878 22.0696 23.8366 22.6094 22.473C23.1634 21.0952 23.4403 19.4474 23.4403 17.5298C23.4403 15.6122 23.1705 13.9503 22.6307 12.544C22.0909 11.1236 21.3097 10.0227 20.2869 9.24148C19.2642 8.46023 18.0213 8.0696 16.5582 8.0696C15.0668 8.0696 13.8097 8.47443 12.7869 9.28409C11.7642 10.0795 10.9901 11.1875 10.4645 12.608C9.93892 14.0284 9.67614 15.669 9.67614 17.5298C9.67614 19.419 9.93892 21.0526 10.4645 22.4304C11.0043 23.794 11.7784 24.8523 12.7869 25.6051C13.8097 26.3437 15.0668 26.7131 16.5582 26.7131ZM39.5909 34V1.27273H48.3906V6.98295H48.7315C49.3281 4.9517 50.3295 3.41761 51.7358 2.38068C53.142 1.32955 54.7614 0.803976 56.5938 0.803976C57.0483 0.803976 57.5384 0.832385 58.0639 0.889203C58.5895 0.946023 59.0511 1.02415 59.4489 1.12358V9.17756C59.0227 9.04971 58.4332 8.93608 57.6804 8.83665C56.9276 8.73722 56.2386 8.6875 55.6136 8.6875C54.2784 8.6875 53.0852 8.97869 52.0341 9.56108C50.9972 10.1293 50.1733 10.9247 49.5625 11.9474C48.9659 12.9702 48.6676 14.1491 48.6676 15.4844V34H39.5909ZM77.533 34.6392C74.1665 34.6392 71.2688 33.9574 68.8398 32.5938C66.4251 31.2159 64.5643 29.2699 63.2575 26.7557C61.9506 24.2273 61.2972 21.2372 61.2972 17.7855C61.2972 14.419 61.9506 11.4645 63.2575 8.92188C64.5643 6.37926 66.4038 4.39773 68.7759 2.97727C71.1623 1.55682 73.9606 0.846591 77.1708 0.846591C79.3299 0.846591 81.3398 1.1946 83.2006 1.89062C85.0756 2.57244 86.7092 3.60227 88.1012 4.98011C89.5075 6.35795 90.6012 8.09091 91.3825 10.179C92.1637 12.2528 92.5543 14.6818 92.5543 17.4659V19.9588H64.9194V14.3338H84.0103C84.0103 13.027 83.7262 11.8693 83.158 10.8608C82.5898 9.85227 81.8015 9.06392 80.793 8.49574C79.7987 7.91335 78.641 7.62216 77.32 7.62216C75.9421 7.62216 74.7205 7.94176 73.6552 8.58096C72.604 9.20596 71.7802 10.0511 71.1836 11.1165C70.587 12.1676 70.2816 13.3395 70.2674 14.6321V19.9801C70.2674 21.5994 70.5657 22.9986 71.1623 24.1776C71.7731 25.3565 72.6325 26.2656 73.7404 26.9048C74.8484 27.544 76.1623 27.8636 77.6822 27.8636C78.6907 27.8636 79.614 27.7216 80.4521 27.4375C81.2901 27.1534 82.0075 26.7273 82.604 26.1591C83.2006 25.5909 83.6552 24.8949 83.9677 24.071L92.3626 24.625C91.9364 26.642 91.0629 28.4034 89.7418 29.9091C88.435 31.4006 86.7447 32.5653 84.6708 33.4034C82.6112 34.2273 80.2319 34.6392 77.533 34.6392ZM125.708 10.6051L117.398 11.1165C117.256 10.4062 116.951 9.76704 116.482 9.19886C116.013 8.61648 115.395 8.15483 114.628 7.81392C113.875 7.45881 112.973 7.28125 111.922 7.28125C110.516 7.28125 109.33 7.57955 108.364 8.17614C107.398 8.75852 106.915 9.53977 106.915 10.5199C106.915 11.3011 107.228 11.9616 107.853 12.5014C108.478 13.0412 109.55 13.4744 111.07 13.8011L116.993 14.9943C120.175 15.6477 122.547 16.6989 124.11 18.1477C125.672 19.5966 126.453 21.5 126.453 23.858C126.453 26.0028 125.821 27.8849 124.557 29.5043C123.307 31.1236 121.588 32.3878 119.401 33.2969C117.228 34.1918 114.721 34.6392 111.88 34.6392C107.547 34.6392 104.096 33.7372 101.525 31.9332C98.9677 30.1151 97.4691 27.6435 97.0288 24.5185L105.956 24.0497C106.226 25.3707 106.88 26.3793 107.917 27.0753C108.953 27.7571 110.282 28.098 111.901 28.098C113.492 28.098 114.77 27.7926 115.736 27.1818C116.716 26.5568 117.213 25.7543 117.228 24.7741C117.213 23.9503 116.865 23.2756 116.184 22.75C115.502 22.2102 114.451 21.7983 113.03 21.5142L107.363 20.3849C104.167 19.7457 101.787 18.6378 100.225 17.0611C98.6765 15.4844 97.9023 13.4744 97.9023 11.0312C97.9023 8.92898 98.4705 7.1179 99.6069 5.59801C100.757 4.07812 102.37 2.90625 104.444 2.08239C106.532 1.25852 108.975 0.846591 111.773 0.846591C115.907 0.846591 119.159 1.72017 121.532 3.46733C123.918 5.21449 125.31 7.59375 125.708 10.6051ZM159.399 10.6051L151.089 11.1165C150.947 10.4062 150.642 9.76704 150.173 9.19886C149.705 8.61648 149.087 8.15483 148.32 7.81392C147.567 7.45881 146.665 7.28125 145.614 7.28125C144.207 7.28125 143.021 7.57955 142.055 8.17614C141.089 8.75852 140.607 9.53977 140.607 10.5199C140.607 11.3011 140.919 11.9616 141.544 12.5014C142.169 13.0412 143.241 13.4744 144.761 13.8011L150.685 14.9943C153.866 15.6477 156.239 16.6989 157.801 18.1477C159.364 19.5966 160.145 21.5 160.145 23.858C160.145 26.0028 159.513 27.8849 158.249 29.5043C156.999 31.1236 155.28 32.3878 153.092 33.2969C150.919 34.1918 148.412 34.6392 145.571 34.6392C141.239 34.6392 137.787 33.7372 135.216 31.9332C132.659 30.1151 131.161 27.6435 130.72 24.5185L139.648 24.0497C139.918 25.3707 140.571 26.3793 141.608 27.0753C142.645 27.7571 143.973 28.098 145.592 28.098C147.183 28.098 148.462 27.7926 149.428 27.1818C150.408 26.5568 150.905 25.7543 150.919 24.7741C150.905 23.9503 150.557 23.2756 149.875 22.75C149.193 22.2102 148.142 21.7983 146.722 21.5142L141.054 20.3849C137.858 19.7457 135.479 18.6378 133.916 17.0611C132.368 15.4844 131.594 13.4744 131.594 11.0312C131.594 8.92898 132.162 7.1179 133.298 5.59801C134.449 4.07812 136.061 2.90625 138.135 2.08239C140.223 1.25852 142.666 0.846591 145.464 0.846591C149.598 0.846591 152.851 1.72017 155.223 3.46733C157.609 5.21449 159.001 7.59375 159.399 10.6051ZM171.166 34.554C169.76 34.554 168.552 34.0568 167.544 33.0625C166.549 32.054 166.052 30.8466 166.052 29.4403C166.052 28.0483 166.549 26.8551 167.544 25.8608C168.552 24.8665 169.76 24.3693 171.166 24.3693C172.529 24.3693 173.723 24.8665 174.745 25.8608C175.768 26.8551 176.279 28.0483 176.279 29.4403C176.279 30.3778 176.038 31.2372 175.555 32.0185C175.086 32.7855 174.468 33.4034 173.701 33.8722C172.934 34.3267 172.089 34.554 171.166 34.554Z" fill="#334155"/>
</svg>
