<svg width="25" height="20" viewBox="0 0 25 20" fill="none" xmlns="http://www.w3.org/2000/svg">
<path d="M21.1115 2.31602C17.7726 0.109862 13.3346 -0.392308 9.648 0.273057C9.648 0.273057 4.3737 1.33611 2.65668 3.70665C-1.09852 7.53477 0.686632 11.7969 2.65668 13.8095C3.17188 16.1702 0 18.8655 0 18.8655C0.892795 19.3933 5.50217 21.2175 9.648 17.2596C13.3264 17.9206 17.7643 17.4228 21.1115 15.2127C26.2878 11.908 26.3047 5.63807 21.1115 2.31602ZM12.7682 15.1915C11.4774 15.1952 10.1916 15.0293 8.94401 14.698L8.08594 15.5265C7.60931 15.9888 7.07563 16.3883 6.49783 16.7153C5.79681 17.0683 5.03526 17.2852 4.25347 17.3547C4.29688 17.2774 4.33507 17.2001 4.3737 17.1272C5.23221 15.5358 5.46369 14.108 5.06814 12.8438C3.65625 11.7323 2.8112 10.3117 2.8112 8.7583C2.8112 5.19927 7.2704 2.31602 12.7682 2.31602C18.2661 2.31602 22.7253 5.19927 22.7253 8.7583C22.7253 12.3173 18.2661 15.1915 12.7682 15.1915ZM7.99132 10.2904C7.59713 10.296 7.21681 10.1451 6.9337 9.87075C6.65058 9.59642 6.48776 9.22104 6.4809 8.82688C6.45052 6.85682 9.42491 6.81386 9.45486 8.77957V8.8017C9.45669 8.99564 9.42028 9.18804 9.3477 9.36789C9.27512 9.54774 9.16779 9.71153 9.03187 9.84987C8.89594 9.98822 8.73408 10.0984 8.55553 10.1742C8.37698 10.2499 8.18526 10.2888 7.99132 10.2904ZM11.1931 8.82688C11.1589 6.85682 14.1332 6.80952 14.1675 8.77523V8.8017C14.1845 10.7583 11.2274 10.7796 11.1931 8.82688ZM17.4162 10.2904C17.022 10.296 16.6416 10.1451 16.3585 9.87077C16.0753 9.59645 15.9123 9.22108 15.9054 8.82688C15.8754 6.85682 18.8498 6.81386 18.8798 8.77957V8.8017C18.8822 8.99581 18.8463 9.18849 18.7739 9.36863C18.7015 9.54876 18.5943 9.7128 18.4582 9.85127C18.3222 9.98974 18.16 10.0999 17.9812 10.1754C17.8024 10.251 17.6104 10.2895 17.4162 10.2904Z" fill="#334155"/>
</svg>
