<svg width="282" height="73" viewBox="0 0 282 73" fill="none" xmlns="http://www.w3.org/2000/svg">
<path d="M3.79261 58V14.3636H21.0085C24.3182 14.3636 27.1378 14.9957 29.4673 16.2599C31.7969 17.5099 33.5724 19.25 34.794 21.4801C36.0298 23.696 36.6477 26.2528 36.6477 29.1506C36.6477 32.0483 36.0227 34.6051 34.7727 36.821C33.5227 39.0369 31.7116 40.7628 29.3395 41.9986C26.9815 43.2344 24.1264 43.8523 20.7741 43.8523H9.80114V36.4588H19.2827C21.0582 36.4588 22.5213 36.1534 23.6719 35.5426C24.8366 34.9176 25.7031 34.0582 26.2713 32.9645C26.8537 31.8565 27.1449 30.5852 27.1449 29.1506C27.1449 27.7017 26.8537 26.4375 26.2713 25.358C25.7031 24.2642 24.8366 23.419 23.6719 22.8224C22.5071 22.2116 21.0298 21.9062 19.2401 21.9062H13.0185V58H3.79261ZM42.4698 58V25.2727H51.2695V30.983H51.6104C52.207 28.9517 53.2085 27.4176 54.6147 26.3807C56.021 25.3295 57.6403 24.804 59.4727 24.804C59.9272 24.804 60.4173 24.8324 60.9428 24.8892C61.4684 24.946 61.93 25.0241 62.3278 25.1236V33.1776C61.9016 33.0497 61.3121 32.9361 60.5593 32.8366C59.8065 32.7372 59.1175 32.6875 58.4925 32.6875C57.1573 32.6875 55.9641 32.9787 54.913 33.5611C53.8761 34.1293 53.0522 34.9247 52.4414 35.9474C51.8448 36.9702 51.5465 38.1491 51.5465 39.4844V58H42.4698ZM81.2962 58.6818C78.3416 58.6818 75.7493 57.9787 73.5192 56.5724C71.3033 55.1662 69.5703 53.1989 68.3203 50.6705C67.0845 48.142 66.4666 45.1875 66.4666 41.8068C66.4666 38.3977 67.0845 35.4219 68.3203 32.8793C69.5703 30.3366 71.3033 28.3622 73.5192 26.956C75.7493 25.5497 78.3416 24.8466 81.2962 24.8466C84.2507 24.8466 86.8359 25.5497 89.0518 26.956C91.282 28.3622 93.0149 30.3366 94.2507 32.8793C95.5007 35.4219 96.1257 38.3977 96.1257 41.8068C96.1257 45.1875 95.5007 48.142 94.2507 50.6705C93.0149 53.1989 91.282 55.1662 89.0518 56.5724C86.8359 57.9787 84.2507 58.6818 81.2962 58.6818ZM81.2962 54.1648C83.5405 54.1648 85.3871 53.5895 86.8359 52.4389C88.2848 51.2884 89.3572 49.7756 90.0533 47.9006C90.7493 46.0256 91.0973 43.9943 91.0973 41.8068C91.0973 39.6193 90.7493 37.581 90.0533 35.6918C89.3572 33.8026 88.2848 32.2756 86.8359 31.1108C85.3871 29.946 83.5405 29.3636 81.2962 29.3636C79.0518 29.3636 77.2053 29.946 75.7564 31.1108C74.3075 32.2756 73.2351 33.8026 72.5391 35.6918C71.843 37.581 71.495 39.6193 71.495 41.8068C71.495 43.9943 71.843 46.0256 72.5391 47.9006C73.2351 49.7756 74.3075 51.2884 75.7564 52.4389C77.2053 53.5895 79.0518 54.1648 81.2962 54.1648ZM117.566 70.9545C114.625 70.9545 112.104 70.5497 110.002 69.7401C107.914 68.9446 106.252 67.858 105.016 66.4801C103.78 65.1023 102.978 63.554 102.608 61.8352L111.003 60.706C111.259 61.3594 111.664 61.9702 112.218 62.5384C112.772 63.1065 113.503 63.5611 114.412 63.902C115.336 64.2571 116.458 64.4347 117.779 64.4347C119.753 64.4347 121.38 63.9517 122.658 62.9858C123.951 62.0341 124.597 60.4361 124.597 58.1918V52.2045H124.213C123.816 53.1136 123.219 53.973 122.424 54.7827C121.628 55.5923 120.605 56.2528 119.355 56.7642C118.105 57.2756 116.614 57.5312 114.881 57.5312C112.424 57.5312 110.186 56.9631 108.169 55.8267C106.167 54.6761 104.569 52.9219 103.375 50.5639C102.196 48.1918 101.607 45.1946 101.607 41.5724C101.607 37.8651 102.211 34.7685 103.418 32.2827C104.625 29.7969 106.23 27.9361 108.233 26.7003C110.25 25.4645 112.459 24.8466 114.86 24.8466C116.692 24.8466 118.226 25.1591 119.462 25.7841C120.698 26.3949 121.692 27.1619 122.445 28.0852C123.212 28.9943 123.801 29.8892 124.213 30.7699H124.554V25.2727H133.567V58.3196C133.567 61.1037 132.885 63.4332 131.522 65.3082C130.158 67.1832 128.269 68.5895 125.854 69.527C123.453 70.4787 120.691 70.9545 117.566 70.9545ZM117.757 50.7131C119.221 50.7131 120.456 50.3509 121.465 49.6264C122.488 48.8878 123.269 47.8366 123.809 46.473C124.363 45.0952 124.64 43.4474 124.64 41.5298C124.64 39.6122 124.37 37.9503 123.83 36.544C123.29 35.1236 122.509 34.0227 121.486 33.2415C120.463 32.4602 119.221 32.0696 117.757 32.0696C116.266 32.0696 115.009 32.4744 113.986 33.2841C112.963 34.0795 112.189 35.1875 111.664 36.608C111.138 38.0284 110.875 39.669 110.875 41.5298C110.875 43.419 111.138 45.0526 111.664 46.4304C112.203 47.794 112.978 48.8523 113.986 49.6051C115.009 50.3437 116.266 50.7131 117.757 50.7131ZM140.79 58V25.2727H149.59V30.983H149.931C150.527 28.9517 151.529 27.4176 152.935 26.3807C154.341 25.3295 155.961 24.804 157.793 24.804C158.248 24.804 158.738 24.8324 159.263 24.8892C159.789 24.946 160.25 25.0241 160.648 25.1236V33.1776C160.222 33.0497 159.632 32.9361 158.88 32.8366C158.127 32.7372 157.438 32.6875 156.813 32.6875C155.478 32.6875 154.284 32.9787 153.233 33.5611C152.196 34.1293 151.373 34.9247 150.762 35.9474C150.165 36.9702 149.867 38.1491 149.867 39.4844V58H140.79ZM178.732 58.6392C175.366 58.6392 172.468 57.9574 170.039 56.5938C167.624 55.2159 165.763 53.2699 164.457 50.7557C163.15 48.2273 162.496 45.2372 162.496 41.7855C162.496 38.419 163.15 35.4645 164.457 32.9219C165.763 30.3793 167.603 28.3977 169.975 26.9773C172.362 25.5568 175.16 24.8466 178.37 24.8466C180.529 24.8466 182.539 25.1946 184.4 25.8906C186.275 26.5724 187.908 27.6023 189.3 28.9801C190.707 30.358 191.8 32.0909 192.582 34.179C193.363 36.2528 193.754 38.6818 193.754 41.4659V43.9588H166.119V38.3338H185.21C185.21 37.027 184.925 35.8693 184.357 34.8608C183.789 33.8523 183.001 33.0639 181.992 32.4957C180.998 31.9134 179.84 31.6222 178.519 31.6222C177.141 31.6222 175.92 31.9418 174.854 32.581C173.803 33.206 172.979 34.0511 172.383 35.1165C171.786 36.1676 171.481 37.3395 171.467 38.6321V43.9801C171.467 45.5994 171.765 46.9986 172.362 48.1776C172.972 49.3565 173.832 50.2656 174.94 50.9048C176.048 51.544 177.362 51.8636 178.881 51.8636C179.89 51.8636 180.813 51.7216 181.651 51.4375C182.489 51.1534 183.207 50.7273 183.803 50.1591C184.4 49.5909 184.854 48.8949 185.167 48.071L193.562 48.625C193.136 50.642 192.262 52.4034 190.941 53.9091C189.634 55.4006 187.944 56.5653 185.87 57.4034C183.81 58.2273 181.431 58.6392 178.732 58.6392ZM226.907 34.6051L218.597 35.1165C218.455 34.4062 218.15 33.767 217.681 33.1989C217.212 32.6165 216.594 32.1548 215.827 31.8139C215.075 31.4588 214.173 31.2812 213.121 31.2812C211.715 31.2812 210.529 31.5795 209.563 32.1761C208.597 32.7585 208.114 33.5398 208.114 34.5199C208.114 35.3011 208.427 35.9616 209.052 36.5014C209.677 37.0412 210.749 37.4744 212.269 37.8011L218.192 38.9943C221.374 39.6477 223.746 40.6989 225.309 42.1477C226.871 43.5966 227.653 45.5 227.653 47.858C227.653 50.0028 227.021 51.8849 225.756 53.5043C224.506 55.1236 222.788 56.3878 220.6 57.2969C218.427 58.1918 215.92 58.6392 213.079 58.6392C208.746 58.6392 205.295 57.7372 202.724 55.9332C200.167 54.1151 198.668 51.6435 198.228 48.5185L207.156 48.0497C207.425 49.3707 208.079 50.3793 209.116 51.0753C210.153 51.7571 211.481 52.098 213.1 52.098C214.691 52.098 215.969 51.7926 216.935 51.1818C217.915 50.5568 218.413 49.7543 218.427 48.7741C218.413 47.9503 218.065 47.2756 217.383 46.75C216.701 46.2102 215.65 45.7983 214.229 45.5142L208.562 44.3849C205.366 43.7457 202.987 42.6378 201.424 41.0611C199.876 39.4844 199.102 37.4744 199.102 35.0312C199.102 32.929 199.67 31.1179 200.806 29.598C201.957 28.0781 203.569 26.9063 205.643 26.0824C207.731 25.2585 210.174 24.8466 212.972 24.8466C217.106 24.8466 220.359 25.7202 222.731 27.4673C225.117 29.2145 226.509 31.5937 226.907 34.6051ZM260.598 34.6051L252.289 35.1165C252.147 34.4062 251.841 33.767 251.373 33.1989C250.904 32.6165 250.286 32.1548 249.519 31.8139C248.766 31.4588 247.864 31.2812 246.813 31.2812C245.407 31.2812 244.221 31.5795 243.255 32.1761C242.289 32.7585 241.806 33.5398 241.806 34.5199C241.806 35.3011 242.118 35.9616 242.743 36.5014C243.368 37.0412 244.441 37.4744 245.961 37.8011L251.884 38.9943C255.066 39.6477 257.438 40.6989 259 42.1477C260.563 43.5966 261.344 45.5 261.344 47.858C261.344 50.0028 260.712 51.8849 259.448 53.5043C258.198 55.1236 256.479 56.3878 254.292 57.2969C252.118 58.1918 249.611 58.6392 246.77 58.6392C242.438 58.6392 238.986 57.7372 236.415 55.9332C233.858 54.1151 232.36 51.6435 231.919 48.5185L240.847 48.0497C241.117 49.3707 241.77 50.3793 242.807 51.0753C243.844 51.7571 245.172 52.098 246.792 52.098C248.382 52.098 249.661 51.7926 250.627 51.1818C251.607 50.5568 252.104 49.7543 252.118 48.7741C252.104 47.9503 251.756 47.2756 251.074 46.75C250.392 46.2102 249.341 45.7983 247.921 45.5142L242.253 44.3849C239.057 43.7457 236.678 42.6378 235.115 41.0611C233.567 39.4844 232.793 37.4744 232.793 35.0312C232.793 32.929 233.361 31.1179 234.498 29.598C235.648 28.0781 237.26 26.9063 239.334 26.0824C241.422 25.2585 243.865 24.8466 246.664 24.8466C250.797 24.8466 254.05 25.7202 256.422 27.4673C258.809 29.2145 260.201 31.5937 260.598 34.6051ZM272.365 58.554C270.959 58.554 269.751 58.0568 268.743 57.0625C267.749 56.054 267.251 54.8466 267.251 53.4403C267.251 52.0483 267.749 50.8551 268.743 49.8608C269.751 48.8665 270.959 48.3693 272.365 48.3693C273.729 48.3693 274.922 48.8665 275.945 49.8608C276.967 50.8551 277.479 52.0483 277.479 53.4403C277.479 54.3778 277.237 55.2372 276.754 56.0185C276.286 56.7855 275.668 57.4034 274.901 57.8722C274.134 58.3267 273.288 58.554 272.365 58.554Z" fill="#334155"/>
<path d="M94 41.5C94 43.1415 93.6767 44.767 93.0485 46.2835C92.4203 47.8001 91.4996 49.1781 90.3388 50.3388C89.1781 51.4996 87.8001 52.4203 86.2835 53.0485C84.767 53.6767 83.1415 54 81.5 54C79.8585 54 78.233 53.6767 76.7165 53.0485C75.1999 52.4203 73.8219 51.4996 72.6612 50.3388C71.5004 49.1781 70.5797 47.8001 69.9515 46.2835C69.3233 44.767 69 43.1415 69 41.5C69 39.8585 69.3233 38.233 69.9515 36.7164C70.5797 35.1999 71.5004 33.8219 72.6612 32.6612C73.8219 31.5004 75.1999 30.5797 76.7165 29.9515C78.233 29.3233 79.8585 29 81.5 29C83.1415 29 84.767 29.3233 86.2836 29.9515C87.8001 30.5797 89.1781 31.5004 90.3388 32.6612C91.4996 33.8219 92.4203 35.1999 93.0485 36.7165C93.6767 38.233 94 39.8585 94 41.5L94 41.5Z" stroke="#E6F9FF" stroke-width="10"/>
<path d="M84.0989 29.2732C86.0284 29.6833 87.8335 30.5443 89.3665 31.7857C90.8995 33.0271 92.117 34.6137 92.9193 36.4158C93.7217 38.2179 94.0861 40.1843 93.9829 42.1542C93.8797 44.1241 93.3117 46.0417 92.3253 47.75C91.339 49.4583 89.9624 50.909 88.308 51.9834C86.6536 53.0578 84.7685 53.7253 82.8066 53.9315C80.8448 54.1377 78.8621 53.8767 77.0204 53.1698C75.1788 52.4628 73.5307 51.3301 72.2107 49.8642" stroke="#3781AA" stroke-width="6" stroke-linecap="round"/>
</svg>
