<svg width="35" height="35" viewBox="0 0 35 35" fill="none" xmlns="http://www.w3.org/2000/svg">
<path d="M30 17.5C30 19.1415 29.6767 20.767 29.0485 22.2835C28.4203 23.8001 27.4996 25.1781 26.3388 26.3388C25.1781 27.4996 23.8001 28.4203 22.2835 29.0485C20.767 29.6767 19.1415 30 17.5 30C15.8585 30 14.233 29.6767 12.7165 29.0485C11.1999 28.4203 9.8219 27.4996 8.66117 26.3388C7.50044 25.1781 6.57969 23.8001 5.95151 22.2835C5.32333 20.767 5.00001 19.1415 5.00001 17.5C5.00001 15.8585 5.32333 14.233 5.95151 12.7164C6.5797 11.1999 7.50044 9.82189 8.66118 8.66116C9.82191 7.50043 11.1999 6.57969 12.7165 5.9515C14.233 5.32332 15.8585 5 17.5 5C19.1415 5 20.767 5.32332 22.2836 5.95151C23.8001 6.57969 25.1781 7.50044 26.3388 8.66117C27.4996 9.8219 28.4203 11.1999 29.0485 12.7165C29.6767 14.233 30 15.8585 30 17.5L30 17.5Z" stroke="#E6F9FF" stroke-width="10"/>
<path d="M20.0989 5.27316C22.0284 5.68329 23.8335 6.54426 25.3665 7.78567C26.8995 9.02709 28.117 10.6137 28.9193 12.4158C29.7217 14.2179 30.0861 16.1843 29.9829 18.1542C29.8796 20.1241 29.3116 22.0416 28.3253 23.75C27.339 25.4583 25.9624 26.909 24.308 27.9834C22.6536 29.0577 20.7684 29.7253 18.8066 29.9315C16.8448 30.1377 14.862 29.8767 13.0204 29.1698C11.1788 28.4628 9.53065 27.3301 8.2107 25.8641" stroke="#3781AA" stroke-width="6" stroke-linecap="round"/>
</svg>
