<svg width="60" height="44" viewBox="0 0 60 44" fill="none" xmlns="http://www.w3.org/2000/svg">
<path d="M0.792614 44V0.363635H18.0085C21.3182 0.363635 24.1378 0.995738 26.4673 2.25994C28.7969 3.50994 30.5724 5.25 31.794 7.48011C33.0298 9.69602 33.6477 12.2528 33.6477 15.1506C33.6477 18.0483 33.0227 20.6051 31.7727 22.821C30.5227 25.0369 28.7116 26.7628 26.3395 27.9986C23.9815 29.2344 21.1264 29.8523 17.7741 29.8523H6.80114V22.4588H16.2827C18.0582 22.4588 19.5213 22.1534 20.6719 21.5426C21.8366 20.9176 22.7031 20.0582 23.2713 18.9645C23.8537 17.8565 24.1449 16.5852 24.1449 15.1506C24.1449 13.7017 23.8537 12.4375 23.2713 11.358C22.7031 10.2642 21.8366 9.41903 20.6719 8.82244C19.5071 8.21165 18.0298 7.90625 16.2401 7.90625H10.0185V44H0.792614ZM39.4698 44V11.2727H48.2695V16.983H48.6104C49.207 14.9517 50.2085 13.4176 51.6147 12.3807C53.021 11.3295 54.6403 10.804 56.4727 10.804C56.9272 10.804 57.4173 10.8324 57.9428 10.8892C58.4684 10.946 58.93 11.0241 59.3278 11.1236V19.1776C58.9016 19.0497 58.3121 18.9361 57.5593 18.8366C56.8065 18.7372 56.1175 18.6875 55.4925 18.6875C54.1573 18.6875 52.9641 18.9787 51.913 19.5611C50.8761 20.1293 50.0522 20.9247 49.4414 21.9474C48.8448 22.9702 48.5465 24.1491 48.5465 25.4844V44H39.4698Z" fill="#334155"/>
</svg>
